<?xml version="1.0" standalone="no"?>
<!DOCTYPE svg PUBLIC "-//W3C//DTD SVG 20010904//EN"
 "http://www.w3.org/TR/2001/REC-SVG-20010904/DTD/svg10.dtd">
<svg version="1.0" xmlns="http://www.w3.org/2000/svg"
 width="1280.000000pt" height="1028.000000pt" viewBox="0 0 1280.000000 1028.000000"
 preserveAspectRatio="xMidYMid meet">
<metadata>
Created by potrace 1.15, written by Peter Selinger 2001-2017
</metadata>
<g transform="translate(0.000000,1028.000000) scale(0.100000,-0.100000)"
fill="#000000" stroke="none">
<path d="M4500 10143 c-47 -9 -125 -45 -172 -80 -64 -46 -98 -105 -98 -168 0
-43 4 -52 39 -85 28 -27 56 -41 97 -52 57 -13 58 -14 69 -58 7 -25 24 -68 38
-97 36 -71 35 -97 -8 -140 l-35 -35 -39 31 c-72 57 -123 73 -218 69 -83 -3
-85 -4 -118 -40 -74 -80 -71 -217 7 -340 61 -96 143 -146 256 -154 56 -5 72
-2 100 15 43 27 68 71 86 149 18 79 43 107 115 129 31 10 59 22 63 27 14 21
114 -7 318 -89 375 -151 531 -235 826 -445 160 -114 351 -305 418 -417 59
-101 119 -256 145 -377 43 -200 91 -651 91 -855 0 -128 -23 -287 -49 -347 -47
-106 -177 -280 -323 -432 -76 -79 -151 -124 -271 -161 -103 -31 -173 -41 -387
-52 -474 -24 -720 -23 -704 3 5 7 -2 9 -19 4 -15 -3 -29 -1 -32 5 -4 6 -13 8
-20 5 -7 -2 -48 2 -92 9 -43 8 -133 24 -201 35 -67 11 -132 24 -145 29 -12 4
-28 6 -36 3 -7 -2 -16 0 -20 5 -3 6 -42 18 -86 28 -329 72 -627 243 -696 399
-11 25 -35 111 -54 192 -56 241 -58 245 -151 345 -58 62 -94 112 -123 170 -43
86 -198 544 -208 614 -3 25 2 70 12 113 l18 71 -24 48 c-18 35 -36 55 -69 73
-41 23 -55 25 -155 24 -123 -1 -194 -21 -273 -77 -49 -35 -99 -105 -108 -152
-8 -43 16 -96 58 -128 42 -32 195 -68 254 -60 l42 5 22 -58 c63 -165 72 -200
73 -274 3 -143 -56 -201 -213 -208 -74 -4 -96 -1 -159 22 -130 47 -241 146
-301 269 -50 102 -78 120 -190 115 -100 -4 -142 -21 -204 -84 -121 -124 -149
-314 -58 -397 24 -22 112 -47 168 -47 23 0 61 10 87 23 l46 24 113 -49 c151
-65 341 -129 404 -135 29 -3 109 2 179 12 170 24 212 15 295 -61 73 -68 185
-217 205 -273 40 -114 61 -431 34 -536 -16 -67 -45 -123 -83 -163 -37 -41 -67
-57 -149 -82 -43 -13 -72 -30 -95 -55 -51 -54 -188 -133 -280 -162 -69 -21
-96 -25 -171 -21 -83 4 -91 6 -139 41 -61 45 -112 119 -112 161 0 17 7 53 15
80 38 126 3 218 -96 246 -46 14 -191 -4 -243 -30 -103 -49 -193 -172 -202
-274 -11 -112 61 -168 220 -173 82 -2 92 -5 119 -30 41 -39 67 -95 67 -143 0
-35 -4 -43 -32 -60 -50 -30 -97 -25 -182 19 -68 37 -81 40 -154 40 -98 0 -137
-18 -169 -79 -58 -109 2 -304 122 -396 20 -15 59 -34 88 -42 154 -44 214 -18
262 113 19 52 50 95 69 95 6 0 24 7 40 15 15 8 32 13 37 10 12 -8 222 46 354
90 155 52 425 160 520 208 44 22 153 86 243 143 186 119 266 161 372 197 107
37 147 40 321 27 203 -15 389 -48 650 -114 494 -127 489 -125 564 -208 115
-127 151 -301 126 -614 -26 -323 -65 -505 -141 -659 -114 -230 -270 -340 -680
-479 -479 -161 -797 -212 -1335 -210 -264 0 -351 4 -499 22 -99 12 -184 26
-190 31 -6 4 -33 13 -61 20 -83 20 -226 96 -321 170 -49 38 -145 115 -212 170
-229 184 -442 325 -679 448 -82 42 -158 85 -171 96 -12 12 -31 51 -42 88 -34
114 -77 148 -190 148 -123 0 -223 -66 -282 -187 -29 -59 -33 -76 -33 -152 0
-74 3 -89 24 -119 28 -39 69 -58 144 -67 71 -8 116 0 161 31 l37 25 162 -89
c374 -205 497 -290 597 -413 107 -132 136 -238 90 -332 -46 -96 -134 -145
-300 -166 -68 -9 -770 -32 -776 -26 0 1 -22 27 -49 59 -60 72 -93 90 -170 93
-112 4 -173 -33 -216 -130 -33 -74 -33 -219 0 -293 26 -59 87 -120 128 -128
16 -4 47 -11 69 -17 57 -14 112 12 184 86 l54 56 139 0 c183 0 398 16 577 42
80 11 154 20 165 20 28 -2 174 33 270 64 113 37 199 85 288 158 43 36 98 72
125 81 26 9 56 22 67 28 11 6 76 13 145 15 136 4 260 -15 374 -58 82 -31 96
-48 96 -115 0 -111 -66 -194 -382 -477 -93 -83 -191 -180 -220 -217 -29 -36
-70 -85 -91 -108 -38 -41 -38 -41 -72 -27 -21 8 -69 14 -122 14 -100 0 -138
-16 -174 -72 -43 -68 -7 -194 82 -292 57 -63 121 -99 215 -122 93 -22 136 -14
185 34 29 29 39 50 48 97 7 33 15 68 18 78 14 52 496 577 693 755 298 270 548
412 835 473 33 7 65 16 72 22 7 5 17 6 23 2 5 -3 10 -1 10 5 0 5 12 10 28 10
15 0 101 13 192 29 91 17 190 32 220 35 116 11 252 46 570 151 124 40 251 79
283 87 31 7 57 16 57 20 0 11 22 12 311 11 408 -1 650 -34 736 -99 45 -34 79
-108 94 -203 15 -101 1 -202 -67 -487 -30 -126 -61 -285 -69 -354 -53 -434
-102 -624 -228 -875 -99 -199 -257 -396 -533 -665 -186 -182 -274 -255 -332
-275 -48 -16 -227 -22 -218 -7 5 9 -179 49 -261 56 -62 6 -88 26 -139 107 -48
75 -88 97 -178 98 -80 0 -119 -14 -165 -60 -57 -57 -93 -147 -98 -247 -4 -81
-3 -91 24 -142 34 -66 89 -99 181 -107 76 -7 116 14 200 101 l63 66 73 0 c40
0 96 -7 124 -15 76 -23 91 -66 49 -139 -22 -38 -23 -39 -82 -41 -102 -2 -150
-53 -147 -156 1 -78 39 -157 105 -223 65 -65 94 -81 198 -107 117 -29 183 -7
220 75 24 53 24 99 -1 178 -34 108 -31 119 58 207 42 42 172 160 287 261 256
226 554 520 661 656 45 55 114 153 154 217 40 64 87 130 104 146 l31 30 52
-23 c36 -17 97 -68 205 -173 84 -81 203 -187 263 -234 164 -129 173 -151 185
-454 5 -116 11 -220 15 -231 6 -18 1 -24 -28 -33 -50 -17 -114 -65 -132 -100
-37 -72 -4 -157 78 -205 23 -14 78 -34 122 -46 150 -40 291 -14 373 71 76 78
64 155 -42 258 -52 49 -70 76 -90 129 -50 132 -57 222 -21 252 8 7 12 17 9 22
-13 20 80 -18 331 -137 143 -67 155 -80 154 -158 0 -23 -10 -69 -23 -102 l-23
-60 -49 -6 c-89 -11 -165 -65 -181 -127 -15 -61 48 -158 133 -204 27 -14 86
-36 132 -48 188 -51 344 5 367 131 8 45 -16 105 -68 167 -40 48 -45 77 -21
123 21 42 83 109 100 109 8 0 14 5 14 11 0 6 9 9 20 6 11 -3 20 -1 20 4 0 4 6
6 14 3 8 -3 32 0 55 6 37 10 44 8 80 -15 44 -30 151 -52 194 -41 43 10 112 80
137 137 12 28 24 81 27 119 10 123 -47 254 -129 293 -38 18 -155 21 -196 6
-57 -22 -115 -105 -128 -186 -6 -35 -13 -42 -82 -82 l-75 -45 -291 147 c-461
231 -556 289 -796 487 -58 47 -149 119 -202 160 -64 48 -112 94 -139 133 -23
32 -78 98 -124 147 -115 124 -130 157 -128 295 2 202 29 353 154 860 57 232
76 295 114 370 55 110 151 232 310 391 218 219 411 340 629 394 99 25 359 112
367 123 11 15 81 -5 329 -93 592 -211 760 -254 1135 -294 394 -43 661 -46 887
-10 31 5 39 2 52 -18 33 -50 176 -759 221 -1096 l15 -114 -29 -36 c-46 -58
-166 -170 -281 -262 -58 -46 -145 -120 -193 -165 -176 -160 -392 -301 -493
-321 -28 -5 -32 -2 -46 28 -9 18 -23 56 -32 84 -18 54 -54 96 -98 113 -15 5
-61 9 -102 7 -59 -3 -84 -9 -120 -30 -111 -65 -186 -226 -165 -358 14 -87 55
-123 164 -147 66 -15 136 5 204 59 53 42 69 43 99 7 10 -12 5 -20 -24 -42
-129 -98 -82 -243 95 -291 31 -8 73 -20 93 -26 104 -31 279 23 338 104 71 98
45 175 -86 261 -50 33 -60 51 -50 92 11 43 57 85 275 250 119 90 290 224 381
299 158 129 258 196 295 196 64 0 140 -85 174 -195 39 -126 37 -242 -11 -466
l-22 -107 -52 -21 c-137 -57 -200 -174 -141 -262 67 -99 300 -140 439 -77 103
48 168 126 168 203 0 50 -21 85 -80 135 -74 62 -74 62 -54 208 11 86 15 161
11 237 -10 203 -56 295 -247 490 -150 154 -189 229 -244 475 -47 215 -69 408
-63 575 8 253 24 267 267 230 138 -21 251 -52 553 -150 l267 -88 0 -41 0 -41
-54 -2 c-74 -2 -113 -25 -137 -79 -22 -50 -19 -92 13 -160 23 -51 96 -126 152
-159 49 -28 181 -65 233 -65 54 1 119 33 142 71 43 70 35 141 -26 241 -19 32
-35 71 -35 88 -1 40 56 153 93 184 28 24 32 25 58 12 36 -19 126 -39 183 -40
51 -1 85 18 122 67 31 42 34 146 6 219 -27 72 -105 160 -174 196 -44 23 -63
26 -147 26 -107 1 -135 -10 -169 -67 -24 -38 -26 -117 -6 -174 l14 -40 -69
-26 c-38 -15 -78 -27 -89 -27 -12 0 -62 18 -113 39 -104 44 -217 79 -357 111
-359 82 -411 99 -432 145 -6 13 -8 35 -4 50 6 24 966 1002 1027 1045 25 18 27
18 80 1 144 -49 162 -51 225 -22 162 74 92 347 -116 449 -48 24 -67 27 -150
27 -153 0 -196 -36 -194 -164 l1 -73 -86 -92 c-48 -50 -176 -190 -286 -311
-261 -289 -668 -696 -774 -774 -96 -71 -219 -133 -306 -155 -143 -36 -398 -47
-620 -26 -187 18 -724 97 -740 110 -5 4 -53 17 -105 30 -286 68 -610 228 -754
373 -185 185 -244 391 -201 697 9 58 19 174 25 259 12 200 28 238 162 367 112
107 186 159 423 294 230 130 286 170 475 332 150 129 272 245 434 416 63 67
83 81 100 76 28 -8 191 -116 315 -208 54 -40 123 -87 152 -104 72 -41 328
-127 453 -153 134 -28 320 -36 438 -19 51 7 104 12 118 12 15 -1 62 9 107 22
l81 23 52 -59 c59 -67 83 -81 169 -101 98 -23 159 3 204 86 34 64 31 191 -6
270 -62 134 -137 187 -267 187 -64 0 -83 -4 -111 -23 -32 -22 -60 -74 -74
-139 -3 -19 -12 -28 -24 -28 -10 0 -62 -14 -116 -30 -54 -16 -103 -30 -110
-30 -35 0 -50 138 -24 217 9 28 23 40 87 72 83 42 114 69 131 114 37 98 -28
195 -165 247 -41 15 -79 20 -151 20 -126 0 -199 -20 -258 -72 -50 -44 -64 -86
-45 -142 13 -40 80 -105 128 -125 24 -10 31 -18 27 -31 -3 -9 -12 -53 -20 -98
-21 -119 -42 -154 -106 -172 -26 -8 -46 -5 -94 11 -85 30 -119 49 -278 151
-78 50 -199 124 -270 165 -169 96 -182 106 -214 161 -27 46 -28 50 -28 207 1
169 14 274 48 365 20 55 72 140 85 140 4 0 20 -25 36 -55 33 -63 64 -89 133
-110 65 -20 107 -19 153 5 107 55 160 234 115 387 -18 61 -83 138 -128 152
-61 19 -151 13 -201 -14 l-46 -24 0 25 c0 56 -54 119 -135 156 -44 20 -66 23
-175 23 -114 0 -130 -2 -180 -26 -138 -65 -172 -179 -78 -266 29 -27 126 -73
156 -73 28 0 28 -15 2 -100 -21 -69 -40 -197 -65 -430 -18 -164 -43 -274 -84
-363 -67 -149 -354 -469 -567 -635 -116 -90 -440 -294 -669 -423 -240 -134
-528 -263 -713 -318 l-73 -22 -57 21 c-118 43 -198 126 -248 255 -30 79 -72
148 -134 220 -69 80 -108 146 -124 210 -20 81 -89 566 -121 850 -30 264 -38
310 -105 570 -86 333 -90 393 -36 509 49 106 162 231 256 282 19 10 38 23 41
27 10 14 68 -21 123 -73 28 -26 86 -70 128 -98 42 -29 88 -67 102 -85 27 -35
53 -130 38 -135 -34 -11 -120 -84 -139 -117 -72 -128 27 -225 256 -252 121
-14 284 65 330 160 42 87 23 151 -66 218 -37 27 -53 47 -53 62 0 29 40 68 109
106 l55 29 50 -18 c92 -32 145 -43 197 -38 84 8 139 63 147 147 10 107 -100
254 -226 301 -48 18 -73 21 -158 18 -108 -4 -139 -15 -170 -63 -18 -27 -23
-94 -12 -137 7 -24 3 -29 -49 -62 -112 -70 -158 -59 -298 74 -49 47 -127 116
-172 153 -136 112 -203 220 -175 282 17 37 49 52 178 88 l119 32 48 -32 c27
-18 68 -38 90 -44 23 -5 57 -15 75 -21 71 -21 147 15 182 87 60 124 -23 319
-172 400 -48 26 -62 29 -144 29 -70 0 -97 -4 -118 -17 -35 -23 -63 -70 -71
-118 -5 -30 -12 -40 -36 -48 -17 -6 -68 -33 -113 -61 -46 -27 -86 -50 -88 -50
-3 0 -6 32 -7 72 -2 77 -14 109 -56 148 -24 23 -36 25 -126 28 -92 4 -103 2
-162 -25 -190 -90 -280 -326 -157 -415 30 -22 116 -41 189 -42 l55 -1 35 -85
c42 -104 52 -190 26 -244 -25 -51 -231 -264 -327 -336 -66 -50 -86 -60 -119
-60 -21 0 -47 4 -57 9 -9 5 -46 23 -82 39 -36 16 -135 75 -220 132 -107 70
-225 136 -380 212 -392 191 -430 210 -533 278 -104 68 -189 149 -207 195 -18
46 -11 70 36 131 54 68 74 111 74 154 0 63 -57 130 -128 150 -36 10 -174 12
-222 3z"/>
</g>
</svg>
